<?xml version="1.0" encoding="utf-8"?><!-- Uploaded to: SVG Repo, www.svgrepo.com, Generator: SVG Repo Mixer Tools -->
<svg fill="#000000" width="800px" height="800px" viewBox="0 0 24 24" id="picasa" data-name="Flat Line" xmlns="http://www.w3.org/2000/svg" class="icon flat-line"><path id="secondary" d="M12,3a9,9,0,1,0,9,9A9,9,0,0,0,12,3Zm2.17,12L9.8,15,8.47,10.83,12,8.28l3.53,2.59Z" style="fill: rgb(44, 169, 188); stroke-width: 2;"></path><path id="primary" d="M10,15l10,.06m-5.76-.23,3.29-9.94m-2.15,5.86L7,4.55m4.9,3.85-8.5,6.1M8.53,11l3.18,10M12,3a9,9,0,1,0,9,9A9,9,0,0,0,12,3Z" style="fill: none; stroke: rgb(0, 0, 0); stroke-linecap: round; stroke-linejoin: round; stroke-width: 2;"></path></svg>